<mxfile host="app.diagrams.net" modified="2022-12-01T18:06:56.055Z" agent="5.0 (Windows NT 10.0; Win64; x64) AppleWebKit/537.36 (KHTML, like Gecko) Chrome/107.0.0.0 Safari/537.36" etag="lzYF8J7Chxp9R11iPr11" version="20.6.0" type="github">
  <diagram id="C5RBs43oDa-KdzZeNtuy" name="Page-1">
    <mxGraphModel dx="830" dy="463" grid="1" gridSize="10" guides="1" tooltips="1" connect="1" arrows="1" fold="1" page="1" pageScale="1" pageWidth="827" pageHeight="1169" math="0" shadow="0">
      <root>
        <mxCell id="WIyWlLk6GJQsqaUBKTNV-0" />
        <mxCell id="WIyWlLk6GJQsqaUBKTNV-1" parent="WIyWlLk6GJQsqaUBKTNV-0" />
        <mxCell id="jZVtd-r-f_xqAtiv0svl-8" style="edgeStyle=orthogonalEdgeStyle;rounded=0;orthogonalLoop=1;jettySize=auto;html=1;entryX=0.67;entryY=-0.03;entryDx=0;entryDy=0;entryPerimeter=0;exitX=0;exitY=0.5;exitDx=0;exitDy=0;" edge="1" parent="WIyWlLk6GJQsqaUBKTNV-1" source="jZVtd-r-f_xqAtiv0svl-1" target="jZVtd-r-f_xqAtiv0svl-6">
          <mxGeometry relative="1" as="geometry">
            <mxPoint x="160" y="170" as="targetPoint" />
            <Array as="points">
              <mxPoint x="160" y="220" />
            </Array>
          </mxGeometry>
        </mxCell>
        <mxCell id="jZVtd-r-f_xqAtiv0svl-17" style="edgeStyle=orthogonalEdgeStyle;rounded=0;orthogonalLoop=1;jettySize=auto;html=1;entryX=0.343;entryY=-0.043;entryDx=0;entryDy=0;entryPerimeter=0;exitX=1;exitY=0.5;exitDx=0;exitDy=0;" edge="1" parent="WIyWlLk6GJQsqaUBKTNV-1" source="jZVtd-r-f_xqAtiv0svl-1" target="jZVtd-r-f_xqAtiv0svl-9">
          <mxGeometry relative="1" as="geometry">
            <mxPoint x="640" y="160" as="targetPoint" />
            <Array as="points">
              <mxPoint x="641" y="220" />
            </Array>
          </mxGeometry>
        </mxCell>
        <mxCell id="jZVtd-r-f_xqAtiv0svl-1" value="На какую кнопку нажали?" style="rhombus;whiteSpace=wrap;html=1;" vertex="1" parent="WIyWlLk6GJQsqaUBKTNV-1">
          <mxGeometry x="300" y="180" width="200" height="80" as="geometry" />
        </mxCell>
        <mxCell id="jZVtd-r-f_xqAtiv0svl-13" style="edgeStyle=orthogonalEdgeStyle;rounded=0;orthogonalLoop=1;jettySize=auto;html=1;entryX=0.5;entryY=0;entryDx=0;entryDy=0;" edge="1" parent="WIyWlLk6GJQsqaUBKTNV-1" source="jZVtd-r-f_xqAtiv0svl-6" target="jZVtd-r-f_xqAtiv0svl-12">
          <mxGeometry relative="1" as="geometry" />
        </mxCell>
        <mxCell id="jZVtd-r-f_xqAtiv0svl-6" value="На левую" style="rounded=0;whiteSpace=wrap;html=1;" vertex="1" parent="WIyWlLk6GJQsqaUBKTNV-1">
          <mxGeometry x="80" y="300" width="120" height="60" as="geometry" />
        </mxCell>
        <mxCell id="jZVtd-r-f_xqAtiv0svl-15" style="edgeStyle=orthogonalEdgeStyle;rounded=0;orthogonalLoop=1;jettySize=auto;html=1;entryX=0.5;entryY=0;entryDx=0;entryDy=0;" edge="1" parent="WIyWlLk6GJQsqaUBKTNV-1" source="jZVtd-r-f_xqAtiv0svl-9" target="jZVtd-r-f_xqAtiv0svl-14">
          <mxGeometry relative="1" as="geometry" />
        </mxCell>
        <mxCell id="jZVtd-r-f_xqAtiv0svl-9" value="На правую" style="rounded=0;whiteSpace=wrap;html=1;" vertex="1" parent="WIyWlLk6GJQsqaUBKTNV-1">
          <mxGeometry x="600" y="300" width="120" height="60" as="geometry" />
        </mxCell>
        <mxCell id="jZVtd-r-f_xqAtiv0svl-27" style="edgeStyle=orthogonalEdgeStyle;rounded=0;orthogonalLoop=1;jettySize=auto;html=1;entryX=0.5;entryY=0;entryDx=0;entryDy=0;fontSize=11;" edge="1" parent="WIyWlLk6GJQsqaUBKTNV-1" source="jZVtd-r-f_xqAtiv0svl-12" target="jZVtd-r-f_xqAtiv0svl-24">
          <mxGeometry relative="1" as="geometry" />
        </mxCell>
        <mxCell id="jZVtd-r-f_xqAtiv0svl-12" value="Ожидание зажигания 5 светодиодов&lt;br&gt;слева направо" style="rounded=0;whiteSpace=wrap;html=1;" vertex="1" parent="WIyWlLk6GJQsqaUBKTNV-1">
          <mxGeometry x="80" y="420" width="120" height="60" as="geometry" />
        </mxCell>
        <mxCell id="jZVtd-r-f_xqAtiv0svl-34" style="edgeStyle=orthogonalEdgeStyle;rounded=0;orthogonalLoop=1;jettySize=auto;html=1;entryX=0.5;entryY=0;entryDx=0;entryDy=0;fontSize=11;" edge="1" parent="WIyWlLk6GJQsqaUBKTNV-1" source="jZVtd-r-f_xqAtiv0svl-14" target="jZVtd-r-f_xqAtiv0svl-25">
          <mxGeometry relative="1" as="geometry" />
        </mxCell>
        <mxCell id="jZVtd-r-f_xqAtiv0svl-14" value="Ожидание зажигания 5 светодиодов&lt;br&gt;справа налево" style="rounded=0;whiteSpace=wrap;html=1;" vertex="1" parent="WIyWlLk6GJQsqaUBKTNV-1">
          <mxGeometry x="600" y="420" width="120" height="60" as="geometry" />
        </mxCell>
        <mxCell id="jZVtd-r-f_xqAtiv0svl-22" style="edgeStyle=orthogonalEdgeStyle;rounded=0;orthogonalLoop=1;jettySize=auto;html=1;entryX=0.5;entryY=0;entryDx=0;entryDy=0;" edge="1" parent="WIyWlLk6GJQsqaUBKTNV-1" source="jZVtd-r-f_xqAtiv0svl-18" target="jZVtd-r-f_xqAtiv0svl-21">
          <mxGeometry relative="1" as="geometry" />
        </mxCell>
        <mxCell id="jZVtd-r-f_xqAtiv0svl-18" value="Выключенное состояние" style="rounded=0;whiteSpace=wrap;html=1;" vertex="1" parent="WIyWlLk6GJQsqaUBKTNV-1">
          <mxGeometry x="320" width="160" height="60" as="geometry" />
        </mxCell>
        <mxCell id="jZVtd-r-f_xqAtiv0svl-23" style="edgeStyle=orthogonalEdgeStyle;rounded=0;orthogonalLoop=1;jettySize=auto;html=1;entryX=0.5;entryY=0;entryDx=0;entryDy=0;" edge="1" parent="WIyWlLk6GJQsqaUBKTNV-1" source="jZVtd-r-f_xqAtiv0svl-21" target="jZVtd-r-f_xqAtiv0svl-1">
          <mxGeometry relative="1" as="geometry" />
        </mxCell>
        <mxCell id="jZVtd-r-f_xqAtiv0svl-21" value="Нажатие на кнопку" style="shape=parallelogram;perimeter=parallelogramPerimeter;whiteSpace=wrap;html=1;fixedSize=1;" vertex="1" parent="WIyWlLk6GJQsqaUBKTNV-1">
          <mxGeometry x="310" y="90" width="180" height="60" as="geometry" />
        </mxCell>
        <mxCell id="jZVtd-r-f_xqAtiv0svl-29" style="edgeStyle=orthogonalEdgeStyle;rounded=0;orthogonalLoop=1;jettySize=auto;html=1;fontSize=11;entryX=0.5;entryY=0;entryDx=0;entryDy=0;" edge="1" parent="WIyWlLk6GJQsqaUBKTNV-1" source="jZVtd-r-f_xqAtiv0svl-24" target="jZVtd-r-f_xqAtiv0svl-30">
          <mxGeometry relative="1" as="geometry">
            <mxPoint x="140" y="710" as="targetPoint" />
          </mxGeometry>
        </mxCell>
        <mxCell id="jZVtd-r-f_xqAtiv0svl-41" style="edgeStyle=orthogonalEdgeStyle;rounded=0;orthogonalLoop=1;jettySize=auto;html=1;fontSize=11;entryX=0.667;entryY=0;entryDx=0;entryDy=0;entryPerimeter=0;" edge="1" parent="WIyWlLk6GJQsqaUBKTNV-1" source="jZVtd-r-f_xqAtiv0svl-24" target="jZVtd-r-f_xqAtiv0svl-46">
          <mxGeometry relative="1" as="geometry">
            <mxPoint x="320" y="660" as="targetPoint" />
            <Array as="points">
              <mxPoint x="320" y="585" />
            </Array>
          </mxGeometry>
        </mxCell>
        <mxCell id="jZVtd-r-f_xqAtiv0svl-24" value="&lt;p style=&quot;line-height: 120%;&quot;&gt;&lt;font style=&quot;font-size: 11px;&quot;&gt;Будет нажатие на правую кнопку при активированной левой кнопке?&lt;/font&gt;&lt;/p&gt;" style="rhombus;whiteSpace=wrap;html=1;" vertex="1" parent="WIyWlLk6GJQsqaUBKTNV-1">
          <mxGeometry x="25" y="520" width="230" height="130" as="geometry" />
        </mxCell>
        <mxCell id="jZVtd-r-f_xqAtiv0svl-36" style="edgeStyle=orthogonalEdgeStyle;rounded=0;orthogonalLoop=1;jettySize=auto;html=1;entryX=0.5;entryY=0;entryDx=0;entryDy=0;fontSize=11;" edge="1" parent="WIyWlLk6GJQsqaUBKTNV-1" source="jZVtd-r-f_xqAtiv0svl-25" target="jZVtd-r-f_xqAtiv0svl-35">
          <mxGeometry relative="1" as="geometry" />
        </mxCell>
        <mxCell id="jZVtd-r-f_xqAtiv0svl-51" style="edgeStyle=orthogonalEdgeStyle;rounded=0;orthogonalLoop=1;jettySize=auto;html=1;fontSize=11;entryX=0.421;entryY=0;entryDx=0;entryDy=0;entryPerimeter=0;" edge="1" parent="WIyWlLk6GJQsqaUBKTNV-1" source="jZVtd-r-f_xqAtiv0svl-25" target="jZVtd-r-f_xqAtiv0svl-49">
          <mxGeometry relative="1" as="geometry">
            <mxPoint x="480.5" y="650" as="targetPoint" />
            <Array as="points">
              <mxPoint x="481" y="585" />
            </Array>
          </mxGeometry>
        </mxCell>
        <mxCell id="jZVtd-r-f_xqAtiv0svl-25" value="&lt;p style=&quot;line-height: 120%;&quot;&gt;&lt;font style=&quot;font-size: 11px;&quot;&gt;Будет нажатие на левую кнопку при активированной правой кнопке?&lt;/font&gt;&lt;/p&gt;" style="rhombus;whiteSpace=wrap;html=1;" vertex="1" parent="WIyWlLk6GJQsqaUBKTNV-1">
          <mxGeometry x="542.5" y="520" width="235" height="130" as="geometry" />
        </mxCell>
        <mxCell id="jZVtd-r-f_xqAtiv0svl-32" style="edgeStyle=orthogonalEdgeStyle;rounded=0;orthogonalLoop=1;jettySize=auto;html=1;fontSize=11;entryX=0;entryY=0.5;entryDx=0;entryDy=0;" edge="1" parent="WIyWlLk6GJQsqaUBKTNV-1" source="jZVtd-r-f_xqAtiv0svl-30" target="jZVtd-r-f_xqAtiv0svl-18">
          <mxGeometry relative="1" as="geometry">
            <mxPoint x="20" y="40" as="targetPoint" />
            <Array as="points">
              <mxPoint x="20" y="750" />
              <mxPoint x="20" y="30" />
            </Array>
          </mxGeometry>
        </mxCell>
        <mxCell id="jZVtd-r-f_xqAtiv0svl-30" value="Ожидание 10 секунд" style="rounded=0;whiteSpace=wrap;html=1;fontSize=11;" vertex="1" parent="WIyWlLk6GJQsqaUBKTNV-1">
          <mxGeometry x="80" y="720" width="120" height="60" as="geometry" />
        </mxCell>
        <mxCell id="jZVtd-r-f_xqAtiv0svl-33" value="Нет" style="text;html=1;strokeColor=none;fillColor=none;align=center;verticalAlign=middle;whiteSpace=wrap;rounded=0;fontSize=11;" vertex="1" parent="WIyWlLk6GJQsqaUBKTNV-1">
          <mxGeometry x="130" y="660" width="60" height="30" as="geometry" />
        </mxCell>
        <mxCell id="jZVtd-r-f_xqAtiv0svl-38" style="edgeStyle=orthogonalEdgeStyle;rounded=0;orthogonalLoop=1;jettySize=auto;html=1;fontSize=11;entryX=1;entryY=0.5;entryDx=0;entryDy=0;" edge="1" parent="WIyWlLk6GJQsqaUBKTNV-1" source="jZVtd-r-f_xqAtiv0svl-35" target="jZVtd-r-f_xqAtiv0svl-18">
          <mxGeometry relative="1" as="geometry">
            <mxPoint x="800" y="30" as="targetPoint" />
            <Array as="points">
              <mxPoint x="810" y="750" />
              <mxPoint x="810" y="30" />
            </Array>
          </mxGeometry>
        </mxCell>
        <mxCell id="jZVtd-r-f_xqAtiv0svl-35" value="Ожидание 10 секунд" style="rounded=0;whiteSpace=wrap;html=1;fontSize=11;" vertex="1" parent="WIyWlLk6GJQsqaUBKTNV-1">
          <mxGeometry x="600" y="720" width="120" height="60" as="geometry" />
        </mxCell>
        <mxCell id="jZVtd-r-f_xqAtiv0svl-39" value="Нет" style="text;html=1;strokeColor=none;fillColor=none;align=center;verticalAlign=middle;whiteSpace=wrap;rounded=0;fontSize=11;" vertex="1" parent="WIyWlLk6GJQsqaUBKTNV-1">
          <mxGeometry x="610" y="660" width="60" height="30" as="geometry" />
        </mxCell>
        <mxCell id="jZVtd-r-f_xqAtiv0svl-44" value="Да" style="text;html=1;strokeColor=none;fillColor=none;align=center;verticalAlign=middle;whiteSpace=wrap;rounded=0;fontSize=11;" vertex="1" parent="WIyWlLk6GJQsqaUBKTNV-1">
          <mxGeometry x="250" y="555" width="60" height="30" as="geometry" />
        </mxCell>
        <mxCell id="jZVtd-r-f_xqAtiv0svl-45" value="Да" style="text;html=1;strokeColor=none;fillColor=none;align=center;verticalAlign=middle;whiteSpace=wrap;rounded=0;fontSize=11;" vertex="1" parent="WIyWlLk6GJQsqaUBKTNV-1">
          <mxGeometry x="480" y="555" width="60" height="30" as="geometry" />
        </mxCell>
        <mxCell id="jZVtd-r-f_xqAtiv0svl-48" style="edgeStyle=orthogonalEdgeStyle;rounded=0;orthogonalLoop=1;jettySize=auto;html=1;fontSize=11;" edge="1" parent="WIyWlLk6GJQsqaUBKTNV-1" source="jZVtd-r-f_xqAtiv0svl-46">
          <mxGeometry relative="1" as="geometry">
            <mxPoint x="20" y="750" as="targetPoint" />
          </mxGeometry>
        </mxCell>
        <mxCell id="jZVtd-r-f_xqAtiv0svl-46" value="Выключение светодиодов слева направо" style="rounded=0;whiteSpace=wrap;html=1;fontSize=11;" vertex="1" parent="WIyWlLk6GJQsqaUBKTNV-1">
          <mxGeometry x="240" y="780" width="120" height="60" as="geometry" />
        </mxCell>
        <mxCell id="jZVtd-r-f_xqAtiv0svl-53" style="edgeStyle=orthogonalEdgeStyle;rounded=0;orthogonalLoop=1;jettySize=auto;html=1;fontSize=11;" edge="1" parent="WIyWlLk6GJQsqaUBKTNV-1" source="jZVtd-r-f_xqAtiv0svl-49">
          <mxGeometry relative="1" as="geometry">
            <mxPoint x="810" y="750" as="targetPoint" />
          </mxGeometry>
        </mxCell>
        <mxCell id="jZVtd-r-f_xqAtiv0svl-49" value="Выключение светодиодов справа налево" style="rounded=0;whiteSpace=wrap;html=1;fontSize=11;" vertex="1" parent="WIyWlLk6GJQsqaUBKTNV-1">
          <mxGeometry x="430" y="780" width="120" height="60" as="geometry" />
        </mxCell>
      </root>
    </mxGraphModel>
  </diagram>
</mxfile>
